<?xml version="1.0" standalone="no"?><!DOCTYPE svg PUBLIC "-//W3C//DTD SVG 1.1//EN" "http://www.w3.org/Graphics/SVG/1.1/DTD/svg11.dtd"><svg t="1589626639584" class="icon" viewBox="0 0 1024 1024" version="1.1" xmlns="http://www.w3.org/2000/svg" p-id="5355" xmlns:xlink="http://www.w3.org/1999/xlink" width="200" height="200"><defs><style type="text/css"></style></defs><path d="M510.3104 266.27584l0.9728-0.03584 1.3824 0.03584 1.53088 0.14848 1.03936 0.16896 1.03936 0.22528 1.27488 0.3584 0.73728 0.25088 0.32256 0.11776c1.6384 0.62464 3.20512 1.46944 4.66432 2.53952l0.73216 0.5632 0.78848 0.6656 0.45056 0.42496 0.768 0.768 205.05088 225.55136 0.7168 0.82944a19.968 19.968 0 0 1-1.26976 26.61888l-0.7936 0.75776-0.82944 0.7168a19.968 19.968 0 0 1-26.61888-1.26976l-0.75776-0.7936L531.456 337.85344V900.608a19.968 19.968 0 0 1-39.9104 1.024l-0.0256-1.024V337.85344l-170.05568 187.06432-0.75776 0.7936a19.968 19.968 0 0 1-29.50656-26.8288l0.7168-0.82432 204.8-225.28 1.01376-1.04448 0.82944-0.74752 0.80896-0.65536 0.3328-0.24576c1.4336-1.05472 2.9696-1.88928 4.5824-2.5088l1.14176-0.39936 0.9728-0.2816 1.44896-0.32256 1.25952-0.18944 1.2032-0.10752zM931.16928 107.52a19.968 19.968 0 0 1 1.024 39.9104l-1.024 0.0256H96.768a19.968 19.968 0 0 1-1.024-39.9104l1.024-0.0256h834.40128z" p-id="5356"></path></svg>